# xmcd CD database file
#
# Track frame offsets:
#	150
#	17436
#	31724
#	52028
#	68039
#	87988
#	102479
#	117666
#	136576
#	152067
#	167506
#	183918
#
# Disc length: 2711 seconds
#
# Revision: 0
# Processed by: cddbd v1.5.2PL0 Copyright (c) Steve Scherf et al.
# Submitted via: CDex 1.51
#
DISCID=910a950c
DTITLE=Montogomery Gentry - 20 Years Of Hits
DYEAR=2018
DGENRE=Country
TTITLE0=Back When I Knew It All (Remix feat Brad Paisley)
TTITLE1=Hillbilly Shoes (Remix feat Granger Smith)
TTITLE2=Hell Yeah (Remix feat Jimmie Allen)
TTITLE3=What Do Ya Think About That (Remix feat Colt Ford)
TTITLE4=My Town
TTITLE5=Lucky Man (Remix feat Darius Rucker)
TTITLE6=Where I Come From
TTITLE7=Something To Be Proud Of (Remix feat Logan Mize)
TTITLE8=Some People Change
TTITLE9=Better Me
TTITLE10=One In Every Crowd (Remix feat Rodney Atkins)
TTITLE11=Gone
EXTD=YEAR: 2018
EXTT0=
EXTT1=
EXTT2=
EXTT3=
EXTT4=
EXTT5=
EXTT6=
EXTT7=
EXTT8=
EXTT9=
EXTT10=
EXTT11=
PLAYORDER=
